<svg width="67" height="56" viewBox="0 0 67 56" fill="none" xmlns="http://www.w3.org/2000/svg">
<path d="M26.9943 7.36735H40.7876C41.3262 7.36735 41.8604 7.38982 42.3889 7.43382C43.6555 7.53857 44.8727 6.92636 45.5064 5.82439C46.6883 3.76966 45.339 1.17303 42.9768 0.974065C42.2545 0.913322 41.5247 0.882233 40.7872 0.882233H27.0885C12.7791 0.882233 0.698001 12.5888 0.797485 26.8982C0.84627 33.9587 3.7313 40.3467 8.36496 44.9804C13.0388 49.6542 19.4971 52.5431 26.6298 52.5431H40.7872C41.5247 52.5431 42.255 52.512 42.9768 52.4513C45.339 52.2518 46.6878 49.6557 45.5064 47.601C44.8727 46.499 43.6555 45.8868 42.3889 45.9915C41.8604 46.0355 41.3257 46.058 40.7872 46.058H26.6298C15.8033 46.058 7.02671 37.1221 7.28785 26.2435C7.54135 15.6824 16.4313 7.36735 26.9943 7.36735Z" fill="url(#paint0_linear_28002_1287)"/>
<path d="M8.25568 40.4086L3.59237 52.3261C2.84242 54.2421 4.84644 56.0759 6.68881 55.16L19.7595 48.6595L8.25568 40.4086Z" fill="#101115"/>
<path d="M51.4324 16.1066C50.6217 15.2926 49.7091 14.5689 48.721 13.9548C48.0796 13.555 47.322 13.4368 46.5854 13.6214C45.8465 13.807 45.2295 14.2738 44.8478 14.9367C44.6082 15.3581 44.4814 15.8316 44.4814 16.3056C44.4814 17.2775 44.9798 18.1704 45.8154 18.6937C48.6062 20.4361 50.2721 23.435 50.2721 26.7151C50.2721 29.9937 48.6052 32.9921 45.8135 34.735C44.5259 35.5424 44.1031 37.1939 44.8507 38.4963C45.3476 39.3553 46.2731 39.889 47.2656 39.889C47.7792 39.889 48.2814 39.7465 48.7162 39.4763C53.1667 36.7175 55.8231 31.9466 55.8231 26.7151C55.8241 22.7056 54.2644 18.9386 51.4324 16.1066Z" fill="#101115"/>
<path d="M42.7196 30.5763C40.5854 30.5763 38.8555 28.8463 38.8555 26.7122C38.8555 24.578 40.5854 22.8481 42.7196 22.8481C44.8537 22.8481 46.5837 24.578 46.5837 26.7122C46.5837 28.8463 44.8537 30.5763 42.7196 30.5763Z" fill="#101115"/>
<path d="M66.6151 26.7157C66.6151 35.9978 61.7237 44.1321 54.3786 48.6859C53.8511 49.0125 53.2685 49.1646 52.6922 49.1646C51.5658 49.1646 50.4667 48.5768 49.8631 47.5322C48.9816 45.9979 49.5096 44.0665 51.011 43.1253C56.4845 39.7084 60.13 33.6308 60.13 26.7157C60.13 19.8006 56.4845 13.7177 51.011 10.3008C50.0047 9.66948 49.4331 8.59237 49.4331 7.48801C49.4331 6.94945 49.5747 6.3999 49.8631 5.89387C50.7771 4.30499 52.8285 3.77744 54.3844 4.74598C56.0818 5.80156 57.6487 7.04224 59.0524 8.45128C63.7258 13.1246 66.6151 19.583 66.6151 26.7157Z" fill="url(#paint1_linear_28002_1287)"/>
<defs>
<linearGradient id="paint0_linear_28002_1287" x1="10.1189" y1="41.5602" x2="32.7445" y2="3.45797" gradientUnits="userSpaceOnUse">
<stop stop-color="#101115"/>
<stop offset="1" stop-color="#101115" stop-opacity="0.619608"/>
</linearGradient>
<linearGradient id="paint1_linear_28002_1287" x1="67.2158" y1="49.9388" x2="52.0017" y2="50.9498" gradientUnits="userSpaceOnUse">
<stop stop-color="#101115"/>
<stop offset="0.991615" stop-color="#101115"/>
</linearGradient>
</defs>
</svg>
